<svg xmlns="http://www.w3.org/2000/svg" xmlns:xlink="http://www.w3.org/1999/xlink" width="960" zoomAndPan="magnify" viewBox="0 0 720 503.999982" height="672" preserveAspectRatio="xMidYMid meet" version="1.0"><defs><filter x="0%" y="0%" width="100%" height="100%" id="a5d26e8937"><feColorMatrix values="0 0 0 0 1 0 0 0 0 1 0 0 0 0 1 0 0 0 1 0" color-interpolation-filters="sRGB"/></filter><g/><clipPath id="a6bc309912"><path d="M 0 0 L 360.203125 0 L 360.203125 504 L 0 504 Z M 0 0 " clip-rule="nonzero"/></clipPath><clipPath id="d9cce2625a"><path d="M 40 106.207031 L 256.722656 106.207031 L 256.722656 331 L 40 331 Z M 40 106.207031 " clip-rule="nonzero"/></clipPath><mask id="0f6e0e4f65"><g filter="url(#a5d26e8937)"><rect x="-72" width="864" fill="#000000" y="-50.399998" height="604.799979" fill-opacity="0.7569"/></g></mask><clipPath id="9e6cbcb6b0"><path d="M 0.679688 0.601562 L 217.878906 0.601562 L 217.878906 226.921875 L 0.679688 226.921875 Z M 0.679688 0.601562 " clip-rule="nonzero"/></clipPath><clipPath id="ed4ad3f0f1"><rect x="0" width="218" y="0" height="227"/></clipPath><clipPath id="d3422c818a"><path d="M 632 47 L 669.941406 47 L 669.941406 79.527344 L 632 79.527344 Z M 632 47 " clip-rule="nonzero"/></clipPath><clipPath id="cc15c0019c"><path d="M 19 195.011719 L 341.617188 195.011719 L 341.617188 390 L 19 390 Z M 19 195.011719 " clip-rule="nonzero"/></clipPath></defs><rect x="-72" width="864" fill="#ffffff" y="-50.399998" height="604.799979" fill-opacity="1"/><rect x="-72" width="864" fill="#ffffff" y="-50.399998" height="604.799979" fill-opacity="1"/><rect x="-72" width="864" fill="#f3f1eb" y="-50.399998" height="604.799979" fill-opacity="1"/><g clip-path="url(#a6bc309912)"><path fill="#a67f5d" d="M -11.046875 -8.996094 L 360.203125 -8.996094 L 360.203125 513.003906 L -11.046875 513.003906 Z M -11.046875 -8.996094 " fill-opacity="1" fill-rule="nonzero"/></g><g clip-path="url(#d9cce2625a)"><path fill="#f4ad48" d="M 255.242188 213.664062 C 250.949219 191.105469 238.429688 171.304688 224.105469 153.71875 C 211.453125 138.214844 196.445312 124.335938 178.324219 115.519531 C 169.558594 111.226562 159.660156 107.292969 149.851562 106.75 C 140.089844 106.207031 130.238281 108.152344 121.292969 112.085938 C 112.207031 116.019531 103.9375 122.167969 97.746094 129.851562 C 90.695312 138.53125 86.765625 148.972656 82.652344 159.28125 C 73.339844 182.695312 59.0625 203.671875 49.570312 227.089844 C 41.164062 247.792969 37.050781 271.390625 45.636719 292.816406 C 53.863281 313.25 73.027344 325.003906 94.085938 328.984375 C 118.171875 333.457031 143.074219 328.574219 165.488281 319.308594 C 176.742188 314.699219 187.5 308.957031 197.984375 302.761719 C 208.332031 296.617188 218.726562 290.332031 228.398438 283.191406 C 237.164062 276.726562 244.847656 269.085938 249.683594 259.230469 C 254.292969 249.871094 256.507812 239.386719 256.597656 228.941406 C 256.644531 223.742188 256.101562 218.636719 255.242188 213.664062 " fill-opacity="1" fill-rule="nonzero"/></g><g mask="url(#0f6e0e4f65)"><g transform="matrix(1, 0, 0, 1, 85, 177)"><g clip-path="url(#ed4ad3f0f1)"><g clip-path="url(#9e6cbcb6b0)"><path fill="#f3f1eb" d="M 204.265625 50.324219 C 227.21875 102.535156 218.027344 156.0625 190.09375 184.890625 C 162.15625 213.714844 83.011719 270.324219 17.492188 167.347656 C -48.023438 64.371094 96.230469 -29.675781 161.023438 10.074219 C 201.09375 34.640625 204.265625 50.324219 204.265625 50.324219 Z M 204.265625 50.324219 " fill-opacity="1" fill-rule="nonzero"/></g></g></g></g><path fill="#a67f5d" d="M 667.265625 50.074219 C 664.105469 47.507812 659.058594 48.753906 656.5 51.023438 C 653.640625 53.558594 651.609375 57.203125 649.628906 60.527344 C 648.777344 58.953125 646.710938 56.183594 645.0625 55.46875 C 643.167969 54.644531 641.152344 53.832031 639.074219 53.644531 C 635.425781 53.316406 632.976562 57.214844 632.9375 60.460938 C 632.902344 63.648438 636.335938 66.871094 638.617188 68.777344 C 641.347656 71.0625 644.277344 73.609375 647.277344 75.5 C 648.929688 76.542969 653.054688 78.042969 653.054688 78.042969 C 653.054688 78.042969 654.613281 74.464844 655.730469 73.101562 C 657.03125 71.515625 658.167969 70.671875 659.5 69.105469 C 660.371094 68.078125 663.199219 65.296875 664.058594 64.253906 C 666.074219 61.796875 667.578125 60.367188 668.507812 57.300781 C 669.210938 54.972656 669.367188 51.785156 667.265625 50.074219 " fill-opacity="1" fill-rule="nonzero"/><g clip-path="url(#d3422c818a)"><path fill="#f2988a" d="M 649.613281 59.566406 C 648.324219 56.117188 644.886719 53.816406 641.378906 53.007812 C 639.679688 52.613281 637.867188 52.628906 636.25 53.328125 C 634.554688 54.058594 633.4375 55.578125 632.863281 57.28125 C 632.277344 59.023438 632.210938 60.773438 632.785156 62.527344 C 633.410156 64.445312 634.621094 66.148438 635.925781 67.667969 C 639.019531 71.257812 643 74.140625 647.058594 76.558594 C 648.933594 77.675781 650.886719 78.734375 652.949219 79.46875 C 653.054688 79.507812 653.09375 79.429688 653.140625 79.347656 C 654.207031 77.339844 655.734375 75.609375 657.273438 73.945312 C 659 72.074219 660.828125 70.296875 662.582031 68.449219 C 665.714844 65.144531 669.027344 61.316406 669.542969 56.621094 C 669.941406 53.015625 668.382812 48.335938 664.445312 47.417969 C 660.75 46.554688 656.792969 48.898438 654.195312 51.28125 C 651.839844 53.4375 649.875 56.3125 649.4375 59.515625 C 649.410156 59.738281 649.65625 60.21875 649.738281 59.789062 C 650.496094 55.757812 653.480469 52.351562 656.902344 50.21875 C 659.824219 48.398438 663.976562 47.125 666.914062 49.605469 C 668.535156 50.976562 669.21875 53.316406 669.273438 55.359375 C 669.332031 57.65625 668.417969 59.847656 667.230469 61.773438 C 664.605469 66.027344 660.664062 69.335938 657.25 72.9375 C 655.582031 74.691406 653.980469 76.570312 652.84375 78.71875 C 652.90625 78.675781 652.96875 78.636719 653.035156 78.597656 C 649.226562 77.257812 645.636719 75.007812 642.386719 72.667969 C 640.398438 71.242188 638.5 69.671875 636.804688 67.910156 C 635.332031 66.382812 633.980469 64.664062 633.167969 62.695312 C 631.691406 59.125 633.390625 54.5 637.355469 53.53125 C 641.003906 52.640625 645.046875 54.492188 647.632812 56.976562 C 648.433594 57.746094 649.140625 58.632812 649.578125 59.652344 C 649.605469 59.714844 649.625 59.59375 649.613281 59.566406 " fill-opacity="1" fill-rule="nonzero"/></g><g fill="#f3f1eb" fill-opacity="1"><g transform="translate(77.824544, 449.469277)"><g><path d="M 6.054688 -8.578125 L 5.117188 -9.425781 L 4.164062 -8.578125 L 5.117188 -7.699219 Z M 8.203125 -8.578125 L 7.28125 -9.425781 L 6.3125 -8.578125 L 7.28125 -7.699219 Z M 12.253906 -3.605469 C 12.253906 -4.757812 11.9375 -6.15625 11.316406 -7.480469 L 10.277344 -7.46875 C 10.957031 -6.34375 11.34375 -4.945312 11.34375 -3.980469 C 11.34375 -2.59375 10.652344 -1.527344 8.921875 -1.527344 L 4.945312 -1.527344 C 2.722656 -1.527344 1.699219 -2.449219 1.699219 -4.066406 C 1.699219 -4.757812 1.84375 -5.59375 2.304688 -6.398438 L 1.570312 -6.730469 C 1.050781 -5.695312 0.808594 -4.597656 0.808594 -3.617188 C 0.808594 -1.28125 2.363281 0 5.320312 0 L 8.980469 0 C 11.199219 -0.0273438 12.253906 -1.46875 12.253906 -3.605469 Z M 12.253906 -3.605469 "/></g></g></g><g fill="#f3f1eb" fill-opacity="1"><g transform="translate(91.013367, 449.469277)"><g><path d="M 1.789062 -11.128906 L 0.964844 -11.128906 L 0.964844 -3.199219 C 0.964844 -1.195312 1.773438 0 4.078125 0 C 4.164062 0 4.222656 -0.0585938 4.222656 -0.144531 L 4.222656 -1.371094 C 4.222656 -1.46875 4.164062 -1.527344 4.078125 -1.527344 C 2.636719 -1.527344 1.789062 -2.292969 1.789062 -3.660156 Z M 1.789062 -11.128906 "/></g></g></g><g fill="#f3f1eb" fill-opacity="1"><g transform="translate(95.193435, 449.469277)"><g><path d="M 0.117188 0 L 4.886719 0 C 7.796875 0 9.140625 -0.9375 9.140625 -3.011719 C 9.140625 -4.785156 8.058594 -5.652344 5.695312 -6.226562 L 2.089844 -7.09375 L 8.996094 -11.042969 L 8.996094 -11.113281 L 7.035156 -11.113281 L 1.253906 -7.523438 L 1.253906 -6.644531 L 5.289062 -5.664062 C 7.191406 -5.1875 7.941406 -4.46875 7.941406 -3.316406 C 7.941406 -2.0625 7.019531 -1.527344 5.003906 -1.527344 L 0.117188 -1.527344 C -0.015625 -1.527344 -0.0585938 -1.46875 -0.0585938 -1.382812 L -0.0585938 -0.144531 C -0.0585938 -0.0585938 -0.015625 0 0.117188 0 Z M 0.117188 0 "/></g></g></g><g fill="#f3f1eb" fill-opacity="1"><g transform="translate(105.297652, 449.469277)"><g><path d="M 5.9375 -1.527344 C 5.117188 -1.527344 4.238281 -1.757812 3.648438 -2.277344 C 3.460938 -3.792969 3.042969 -5.332031 2.40625 -6.773438 L 1.5 -6.773438 C 2.40625 -4.769531 2.769531 -2.652344 2.769531 -0.921875 C 2.769531 1.023438 1.457031 1.789062 -0.289062 1.800781 L -0.289062 3.328125 C 2.277344 3.328125 3.746094 2.019531 3.746094 -0.546875 L 3.746094 -0.808594 L 3.820312 -0.632812 C 4.210938 -0.203125 5.058594 0 5.9375 0 C 6.027344 0 6.097656 -0.0585938 6.097656 -0.144531 L 6.097656 -1.371094 C 6.097656 -1.46875 6.027344 -1.527344 5.9375 -1.527344 Z M 5.9375 -1.527344 "/></g></g></g><g fill="#f3f1eb" fill-opacity="1"><g transform="translate(111.351542, 449.469277)"><g><path d="M 0.117188 0 C 1.28125 0 2.335938 -0.375 2.867188 -1.644531 L 2.925781 -1.644531 C 2.867188 -1.328125 2.839844 -1.066406 2.8125 -0.835938 C 3.242188 -0.300781 4.382812 0 5.390625 0 C 5.492188 0 5.550781 -0.0585938 5.550781 -0.160156 L 5.550781 -1.371094 C 5.550781 -1.46875 5.492188 -1.527344 5.390625 -1.527344 C 4.496094 -1.527344 3.660156 -1.773438 3.070312 -2.335938 C 3.472656 -3.085938 3.558594 -4.613281 3.445312 -5.925781 L 2.566406 -5.925781 C 2.910156 -3.34375 2.464844 -1.527344 0.117188 -1.527344 C 0 -1.527344 -0.0585938 -1.457031 -0.0585938 -1.371094 L -0.0585938 -0.144531 C -0.0585938 -0.0585938 0 0 0.117188 0 Z M 2.710938 0.332031 L 1.757812 1.195312 L 2.722656 2.074219 L 3.660156 1.195312 Z M 2.710938 0.332031 "/></g></g></g><g fill="#f3f1eb" fill-opacity="1"><g transform="translate(116.857694, 449.469277)"><g><path d="M 2.378906 -11.128906 L 2.378906 -3.660156 C 2.378906 -2.292969 1.558594 -1.527344 0.101562 -1.527344 C 0.015625 -1.527344 -0.0585938 -1.46875 -0.0585938 -1.371094 L -0.0585938 -0.144531 C -0.0585938 -0.0585938 0.015625 0 0.101562 0 C 2.421875 0 3.199219 -1.195312 3.199219 -3.199219 L 3.199219 -11.128906 Z M 2.378906 -11.128906 "/></g></g></g><g fill="#f3f1eb" fill-opacity="1"><g transform="translate(121.153074, 449.469277)"><g><path d="M 1.886719 -11.128906 L 0.964844 -11.128906 L 1.066406 0.015625 L 1.886719 0.015625 Z M 1.886719 -11.128906 "/></g></g></g><g fill="#f3f1eb" fill-opacity="1"><g transform="translate(124.136777, 449.469277)"><g><path d="M 3.980469 -7.4375 C 2.089844 -7.4375 0.765625 -5.9375 0.851562 -3.949219 C 0.921875 -1.152344 2.984375 -0.171875 6.472656 -0.128906 C 6.039062 1.398438 4.441406 2.089844 0.878906 2.089844 L 0.921875 3.402344 C 6.039062 3.417969 7.625 2.207031 7.625 -0.503906 C 7.625 -4.023438 7.378906 -7.4375 3.980469 -7.4375 Z M 1.816406 -4.265625 C 1.816406 -5.636719 2.652344 -6.660156 3.992188 -6.660156 C 6.054688 -6.660156 6.542969 -4.210938 6.558594 -1.527344 C 3.820312 -1.527344 1.816406 -1.886719 1.816406 -4.265625 Z M 1.816406 -4.265625 "/></g></g></g><g fill="#f3f1eb" fill-opacity="1"><g transform="translate(132.684288, 449.469277)"><g/></g></g><g fill="#f3f1eb" fill-opacity="1"><g transform="translate(136.359856, 449.469277)"><g><path d="M 5.9375 -1.527344 C 5.117188 -1.527344 4.238281 -1.757812 3.648438 -2.277344 C 3.460938 -3.792969 3.042969 -5.332031 2.40625 -6.773438 L 1.5 -6.773438 C 2.40625 -4.769531 2.769531 -2.652344 2.769531 -0.921875 C 2.769531 1.023438 1.457031 1.789062 -0.289062 1.800781 L -0.289062 3.328125 C 2.277344 3.328125 3.746094 2.019531 3.746094 -0.546875 L 3.746094 -0.808594 L 3.820312 -0.632812 C 4.210938 -0.203125 5.058594 0 5.9375 0 C 6.027344 0 6.097656 -0.0585938 6.097656 -0.144531 L 6.097656 -1.371094 C 6.097656 -1.46875 6.027344 -1.527344 5.9375 -1.527344 Z M 5.9375 -1.527344 "/></g></g></g><g fill="#f3f1eb" fill-opacity="1"><g transform="translate(142.413746, 449.469277)"><g><path d="M 0.117188 0 C 1.28125 0 2.335938 -0.375 2.867188 -1.644531 L 2.925781 -1.644531 C 2.867188 -1.328125 2.839844 -1.066406 2.8125 -0.835938 C 3.242188 -0.300781 4.382812 0 5.390625 0 C 5.492188 0 5.550781 -0.0585938 5.550781 -0.160156 L 5.550781 -1.371094 C 5.550781 -1.46875 5.492188 -1.527344 5.390625 -1.527344 C 4.496094 -1.527344 3.660156 -1.773438 3.070312 -2.335938 C 3.472656 -3.085938 3.558594 -4.613281 3.445312 -5.925781 L 2.566406 -5.925781 C 2.910156 -3.34375 2.464844 -1.527344 0.117188 -1.527344 C 0 -1.527344 -0.0585938 -1.457031 -0.0585938 -1.371094 L -0.0585938 -0.144531 C -0.0585938 -0.0585938 0 0 0.117188 0 Z M 1.644531 2.21875 L 2.582031 1.339844 L 1.644531 0.488281 L 0.691406 1.339844 Z M 3.804688 2.21875 L 4.726562 1.339844 L 3.804688 0.488281 L 2.839844 1.339844 Z M 3.804688 2.21875 "/></g></g></g><g fill="#f3f1eb" fill-opacity="1"><g transform="translate(147.919898, 449.469277)"><g><path d="M 3.980469 -9.832031 L 3.027344 -10.695312 L 2.074219 -9.832031 L 3.042969 -8.953125 Z M 11.273438 -1.527344 C 10.292969 -1.527344 9.917969 -2.148438 10.121094 -3.648438 L 9.832031 -3.660156 C 7.308594 -3.777344 5.792969 -7.351562 2.855469 -7.351562 C 2.21875 -7.351562 1.585938 -7.191406 1.125 -6.890625 L 1.125 -6.070312 C 1.628906 -6.3125 2.234375 -6.386719 2.695312 -6.386719 C 5.144531 -6.386719 6.472656 -3.574219 8.578125 -3.417969 L 8.578125 -3.375 C 5.78125 -3.375 2.855469 -1.527344 0.117188 -1.527344 C 0.015625 -1.527344 -0.0585938 -1.457031 -0.0585938 -1.355469 L -0.0585938 -0.171875 C -0.0585938 -0.0703125 0.015625 0 0.117188 0 C 2.925781 0 6.210938 -2.019531 9.167969 -2.304688 C 9.109375 -0.5625 10.25 0 11.273438 0 C 11.332031 0 11.417969 -0.0703125 11.417969 -0.171875 L 11.417969 -1.382812 C 11.417969 -1.457031 11.332031 -1.527344 11.273438 -1.527344 Z M 11.273438 -1.527344 "/></g></g></g><g fill="#f3f1eb" fill-opacity="1"><g transform="translate(159.278136, 449.469277)"><g><path d="M 2.378906 -11.128906 L 2.378906 -3.660156 C 2.378906 -2.292969 1.558594 -1.527344 0.101562 -1.527344 C 0.015625 -1.527344 -0.0585938 -1.46875 -0.0585938 -1.371094 L -0.0585938 -0.144531 C -0.0585938 -0.0585938 0.015625 0 0.101562 0 C 2.421875 0 3.199219 -1.195312 3.199219 -3.199219 L 3.199219 -11.128906 Z M 2.378906 -11.128906 "/></g></g></g><g fill="#f3f1eb" fill-opacity="1"><g transform="translate(163.573515, 449.469277)"><g><path d="M 1.789062 -11.128906 L 0.964844 -11.128906 L 0.964844 -3.199219 C 0.964844 -1.195312 1.773438 0 4.078125 0 C 4.164062 0 4.222656 -0.0585938 4.222656 -0.144531 L 4.222656 -1.371094 C 4.222656 -1.46875 4.164062 -1.527344 4.078125 -1.527344 C 2.636719 -1.527344 1.789062 -2.292969 1.789062 -3.660156 Z M 1.789062 -11.128906 "/></g></g></g><g fill="#f3f1eb" fill-opacity="1"><g transform="translate(167.753584, 449.469277)"><g><path d="M 2.492188 -7.480469 L 1.46875 -7.480469 C 2.132812 -6.355469 2.523438 -4.945312 2.523438 -3.980469 C 2.523438 -2.59375 1.84375 -1.527344 0.117188 -1.527344 C 0.0273438 -1.527344 -0.0585938 -1.46875 -0.0585938 -1.371094 L -0.0585938 -0.160156 C -0.0585938 -0.0585938 0.0273438 0 0.117188 0 C 2.363281 0 3.445312 -1.457031 3.445312 -3.605469 C 3.445312 -4.757812 3.113281 -6.15625 2.492188 -7.480469 Z M 1.757812 0.851562 L 0.808594 1.714844 L 1.773438 2.59375 L 2.710938 1.714844 Z M 1.757812 0.851562 "/></g></g></g><g fill="#f3f1eb" fill-opacity="1"><g transform="translate(172.135446, 449.469277)"><g/></g></g><g fill="#f3f1eb" fill-opacity="1"><g transform="translate(175.811013, 449.469277)"><g><path d="M 11.386719 -1.527344 C 8.546875 -1.527344 9.601562 -7.105469 6.386719 -7.105469 C 4.582031 -7.105469 3.171875 -3.980469 3.070312 -2.550781 C 1.542969 -2.277344 0.808594 -1.441406 0.808594 0.0273438 C 0.808594 0.894531 0.953125 1.960938 1.382812 4.265625 L 2.480469 4.265625 C 2.105469 2.277344 1.929688 1.066406 1.929688 0.171875 C 1.929688 -0.734375 2.320312 -1.296875 3.300781 -1.542969 C 3.53125 -0.128906 6.574219 0.0429688 8.921875 0.0429688 L 9.210938 -1.3125 C 9.671875 -0.546875 10.335938 0 11.386719 0 C 11.488281 0 11.546875 -0.0585938 11.546875 -0.160156 L 11.546875 -1.382812 C 11.546875 -1.484375 11.488281 -1.527344 11.386719 -1.527344 Z M 3.90625 -2.523438 C 4.023438 -4.296875 5.433594 -6.300781 6.269531 -6.300781 C 8.058594 -6.300781 8.101562 -3.285156 9.140625 -1.425781 C 6.632812 -1.457031 4.09375 -1.613281 3.90625 -2.523438 Z M 3.90625 -2.523438 "/></g></g></g><g fill="#f3f1eb" fill-opacity="1"><g transform="translate(187.298981, 449.469277)"><g><path d="M 11.070312 -1.527344 C 10.21875 -1.527344 9.484375 -1.789062 9.066406 -2.25 C 9.109375 -2.480469 9.140625 -2.738281 9.140625 -3.011719 C 9.140625 -4.785156 8.058594 -5.664062 5.695312 -6.226562 L 2.089844 -7.09375 L 8.996094 -11.042969 L 8.996094 -11.113281 L 7.035156 -11.113281 L 1.253906 -7.523438 L 1.253906 -6.644531 L 5.289062 -5.664062 C 7.191406 -5.1875 7.941406 -4.46875 7.941406 -3.316406 C 7.941406 -2.0625 7.019531 -1.527344 5.003906 -1.527344 L 0.117188 -1.527344 C -0.015625 -1.527344 -0.0585938 -1.46875 -0.0585938 -1.382812 L -0.0585938 -0.144531 C -0.0585938 -0.0585938 -0.015625 0 0.117188 0 L 4.886719 0 C 7.078125 0 8.375 -0.535156 8.894531 -1.671875 C 8.851562 -1.414062 8.792969 -1.140625 8.734375 -0.90625 C 9.050781 -0.445312 10.074219 0 11.070312 0 C 11.1875 0 11.273438 -0.0703125 11.273438 -0.171875 L 11.273438 -1.382812 C 11.273438 -1.457031 11.1875 -1.527344 11.070312 -1.527344 Z M 11.070312 -1.527344 "/></g></g></g><g fill="#f3f1eb" fill-opacity="1"><g transform="translate(198.51308, 449.469277)"><g><path d="M 0.117188 0 C 1.28125 0 2.335938 -0.375 2.867188 -1.644531 L 2.925781 -1.644531 C 2.867188 -1.328125 2.839844 -1.066406 2.8125 -0.835938 C 3.242188 -0.300781 4.382812 0 5.390625 0 C 5.492188 0 5.550781 -0.0585938 5.550781 -0.160156 L 5.550781 -1.371094 C 5.550781 -1.46875 5.492188 -1.527344 5.390625 -1.527344 C 4.496094 -1.527344 3.660156 -1.773438 3.070312 -2.335938 C 3.472656 -3.085938 3.558594 -4.613281 3.445312 -5.925781 L 2.566406 -5.925781 C 2.910156 -3.34375 2.464844 -1.527344 0.117188 -1.527344 C 0 -1.527344 -0.0585938 -1.457031 -0.0585938 -1.371094 L -0.0585938 -0.144531 C -0.0585938 -0.0585938 0 0 0.117188 0 Z M 1.644531 2.21875 L 2.582031 1.339844 L 1.644531 0.488281 L 0.691406 1.339844 Z M 3.804688 2.21875 L 4.726562 1.339844 L 3.804688 0.488281 L 2.839844 1.339844 Z M 3.804688 2.21875 "/></g></g></g><g fill="#f3f1eb" fill-opacity="1"><g transform="translate(204.019232, 449.469277)"><g><path d="M 5.21875 -1.527344 C 4.253906 -1.527344 3.488281 -1.816406 3.140625 -2.304688 C 3.1875 -2.582031 3.199219 -2.882812 3.199219 -3.199219 L 3.199219 -11.128906 L 2.378906 -11.128906 L 2.378906 -3.660156 C 2.378906 -2.292969 1.558594 -1.527344 0.101562 -1.527344 C 0.015625 -1.527344 -0.0585938 -1.46875 -0.0585938 -1.371094 L -0.0585938 -0.144531 C -0.0585938 -0.0585938 0.015625 0 0.101562 0 C 1.789062 0 2.652344 -0.632812 3.011719 -1.730469 L 3.054688 -1.730469 C 3.027344 -1.457031 2.984375 -1.167969 2.910156 -0.921875 C 3.230469 -0.460938 4.210938 0 5.21875 0 C 5.332031 0 5.40625 -0.0703125 5.40625 -0.171875 L 5.40625 -1.382812 C 5.40625 -1.457031 5.332031 -1.527344 5.21875 -1.527344 Z M 5.21875 -1.527344 "/></g></g></g><g fill="#f3f1eb" fill-opacity="1"><g transform="translate(209.381247, 449.469277)"><g><path d="M 0.117188 0 C 3.804688 0 6.199219 -0.1875 8.402344 -0.578125 L 8.578125 -2.019531 C 7.421875 -1.800781 6.703125 -1.746094 5.609375 -1.714844 C 3.933594 -1.671875 1.917969 -2.824219 1.917969 -4.265625 C 1.886719 -5.722656 3.128906 -6.601562 4.640625 -6.601562 C 5.363281 -6.601562 6.210938 -6.429688 7.367188 -5.9375 L 7.367188 -6.890625 C 6.328125 -7.324219 5.375 -7.496094 4.554688 -7.496094 C 2.535156 -7.496094 0.863281 -6.199219 0.863281 -4.410156 C 0.878906 -3.113281 2.074219 -1.929688 3.273438 -1.613281 L 3.273438 -1.558594 C 1.628906 -1.511719 0.835938 -1.527344 0.117188 -1.527344 C 0.015625 -1.527344 -0.0585938 -1.46875 -0.0585938 -1.382812 L -0.0585938 -0.144531 C -0.0585938 -0.0585938 0.015625 0 0.117188 0 Z M 0.117188 0 "/></g></g></g><g fill="#f3f1eb" fill-opacity="1"><g transform="translate(219.038629, 449.469277)"><g/></g></g><g fill="#f3f1eb" fill-opacity="1"><g transform="translate(222.714196, 449.469277)"><g><path d="M 3.316406 0.214844 C 4.46875 0.214844 5.996094 -0.402344 6.328125 -2.261719 L 6.371094 -2.261719 C 6.542969 -0.765625 7.351562 0 9.195312 0 C 9.3125 0 9.398438 -0.0429688 9.398438 -0.144531 L 9.398438 -1.371094 C 9.398438 -1.46875 9.3125 -1.527344 9.195312 -1.527344 C 7.753906 -1.527344 7.121094 -2.277344 7.121094 -3.660156 L 7.121094 -7.453125 L 6.242188 -7.453125 L 6.242188 -6.167969 C 3.546875 -6.183594 0.808594 -4.671875 0.808594 -1.960938 C 0.808594 -0.707031 1.714844 0.214844 3.316406 0.214844 Z M 3.820312 -1.355469 C 2.492188 -1.355469 2.207031 -1.976562 2.207031 -2.679688 C 2.207031 -4.351562 4.222656 -5.550781 6.242188 -5.519531 L 6.242188 -3.402344 C 6.082031 -2.175781 4.988281 -1.355469 3.820312 -1.355469 Z M 3.820312 -1.355469 "/></g></g></g><g fill="#f3f1eb" fill-opacity="1"><g transform="translate(232.068894, 449.469277)"><g><path d="M 5.21875 -1.527344 C 4.253906 -1.527344 3.488281 -1.816406 3.140625 -2.304688 C 3.1875 -2.582031 3.199219 -2.882812 3.199219 -3.199219 L 3.199219 -11.128906 L 2.378906 -11.128906 L 2.378906 -3.660156 C 2.378906 -2.292969 1.558594 -1.527344 0.101562 -1.527344 C 0.015625 -1.527344 -0.0585938 -1.46875 -0.0585938 -1.371094 L -0.0585938 -0.144531 C -0.0585938 -0.0585938 0.015625 0 0.101562 0 C 1.789062 0 2.652344 -0.632812 3.011719 -1.730469 L 3.054688 -1.730469 C 3.027344 -1.457031 2.984375 -1.167969 2.910156 -0.921875 C 3.230469 -0.460938 4.210938 0 5.21875 0 C 5.332031 0 5.40625 -0.0703125 5.40625 -0.171875 L 5.40625 -1.382812 C 5.40625 -1.457031 5.332031 -1.527344 5.21875 -1.527344 Z M 5.21875 -1.527344 "/></g></g></g><g fill="#f3f1eb" fill-opacity="1"><g transform="translate(237.430908, 449.469277)"><g><path d="M 2.378906 -11.128906 L 2.378906 -3.660156 C 2.378906 -2.292969 1.558594 -1.527344 0.101562 -1.527344 C 0.015625 -1.527344 -0.0585938 -1.46875 -0.0585938 -1.371094 L -0.0585938 -0.144531 C -0.0585938 -0.0585938 0.015625 0 0.101562 0 C 2.421875 0 3.199219 -1.195312 3.199219 -3.199219 L 3.199219 -11.128906 Z M 2.378906 -11.128906 "/></g></g></g><g fill="#f3f1eb" fill-opacity="1"><g transform="translate(241.726287, 449.469277)"><g><path d="M 1.886719 -11.128906 L 0.964844 -11.128906 L 1.066406 0.015625 L 1.886719 0.015625 Z M 1.886719 -11.128906 "/></g></g></g><g fill="#f3f1eb" fill-opacity="1"><g transform="translate(244.709991, 449.469277)"><g/></g></g><g fill="#f3f1eb" fill-opacity="1"><g transform="translate(248.385558, 449.469277)"><g><path d="M 4.222656 0.230469 C 6.488281 0.230469 7.65625 -0.863281 7.65625 -2.710938 C 7.65625 -3.949219 7.105469 -5.289062 5.722656 -8.074219 L 4.597656 -8.074219 L 5.058594 -7.222656 C 2.378906 -5.953125 0.808594 -4.484375 0.808594 -2.667969 C 0.808594 -1.039062 2.003906 0.230469 4.222656 0.230469 Z M 4.195312 -1.328125 C 2.652344 -1.328125 1.859375 -2.292969 1.859375 -3.242188 C 1.859375 -4.398438 3.171875 -5.808594 5.332031 -6.632812 C 6.011719 -5.089844 6.542969 -3.921875 6.542969 -3.242188 C 6.542969 -2.0625 5.808594 -1.328125 4.195312 -1.328125 Z M 4.195312 -1.328125 "/></g></g></g><g fill="#f3f1eb" fill-opacity="1"><g transform="translate(256.976305, 449.469277)"><g><path d="M 5.117188 -7.453125 L 3.820312 -7.453125 C 5.738281 -5.925781 6.371094 -4.539062 6.371094 -3.285156 C 6.371094 -2.25 5.722656 -1.46875 4.136719 -1.46875 C 3.242188 -1.46875 2.234375 -1.730469 0.808594 -2.21875 L 0.808594 -0.734375 C 2.117188 -0.257812 3.230469 0.0429688 4.382812 0.0429688 C 6.210938 0.0429688 7.421875 -1.152344 7.421875 -2.8125 C 7.421875 -4.613281 6.703125 -5.953125 5.117188 -7.453125 Z M 5.117188 -7.453125 "/></g></g></g><g fill="#f3f1eb" fill-opacity="1"><g transform="translate(265.336431, 449.469277)"><g><path d="M 1.789062 -11.128906 L 0.964844 -11.128906 L 0.964844 -3.199219 C 0.964844 -1.195312 1.773438 0 4.078125 0 C 4.164062 0 4.222656 -0.0585938 4.222656 -0.144531 L 4.222656 -1.371094 C 4.222656 -1.46875 4.164062 -1.527344 4.078125 -1.527344 C 2.636719 -1.527344 1.789062 -2.292969 1.789062 -3.660156 Z M 1.789062 -11.128906 "/></g></g></g><g fill="#f3f1eb" fill-opacity="1"><g transform="translate(269.5165, 449.469277)"><g><path d="M 0.117188 0 C 3.804688 0 6.199219 -0.1875 8.402344 -0.578125 L 8.578125 -2.019531 C 7.421875 -1.800781 6.703125 -1.746094 5.609375 -1.714844 C 3.933594 -1.671875 1.917969 -2.824219 1.917969 -4.265625 C 1.886719 -5.722656 3.128906 -6.601562 4.640625 -6.601562 C 5.363281 -6.601562 6.210938 -6.429688 7.367188 -5.9375 L 7.367188 -6.890625 C 6.328125 -7.324219 5.375 -7.496094 4.554688 -7.496094 C 2.535156 -7.496094 0.863281 -6.199219 0.863281 -4.410156 C 0.878906 -3.113281 2.074219 -1.929688 3.273438 -1.613281 L 3.273438 -1.558594 C 1.628906 -1.511719 0.835938 -1.527344 0.117188 -1.527344 C 0.015625 -1.527344 -0.0585938 -1.46875 -0.0585938 -1.382812 L -0.0585938 -0.144531 C -0.0585938 -0.0585938 0.015625 0 0.117188 0 Z M 0.117188 0 "/></g></g></g><g fill="#f3f1eb" fill-opacity="1"><g transform="translate(279.173894, 449.469277)"><g><path d="M -0.488281 -12.511719 C 0.101562 -12.699219 0.375 -12.699219 0.707031 -12.699219 L 3.085938 -12.699219 L 3.285156 -13.378906 L 1.917969 -13.378906 C 1.425781 -13.40625 0.851562 -13.652344 0.851562 -14.199219 C 0.851562 -14.675781 1.140625 -14.90625 1.757812 -14.90625 C 2.019531 -14.90625 2.351562 -14.820312 2.769531 -14.660156 L 2.769531 -15.265625 C 2.363281 -15.453125 1.945312 -15.566406 1.585938 -15.566406 C 0.75 -15.566406 0.160156 -15.019531 0.160156 -14.3125 C 0.160156 -13.925781 0.402344 -13.609375 0.863281 -13.421875 L 0.863281 -13.378906 C 0.347656 -13.378906 -0.015625 -13.320312 -0.488281 -13.175781 Z M 1.875 -11.128906 L 0.953125 -11.128906 L 1.050781 0.015625 L 1.875 0.015625 Z M 1.875 -11.128906 "/></g></g></g><g fill="#a67f5d" fill-opacity="1"><g transform="translate(396.930568, 368.99833)"><g><path d="M 4.867188 0 L 4.867188 -8.546875 C 4.867188 -14.660156 12.410156 -18.003906 17.851562 -18.003906 C 20.984375 -18.003906 23.417969 -16.910156 23.417969 -14.660156 L 23.417969 0 L 25.851562 0 L 25.851562 -30.414062 L 23.417969 -30.414062 L 23.417969 -17.121094 C 21.320312 -18.308594 18.671875 -18.917969 15.9375 -18.917969 C 11.800781 -18.917969 7.511719 -17.488281 4.867188 -14.414062 L 4.867188 -30.414062 L 2.433594 -30.414062 L 2.433594 0 Z M 4.867188 0 "/></g></g></g><g fill="#a67f5d" fill-opacity="1"><g transform="translate(425.212029, 368.99833)"><g><path d="M 3.285156 0 L 4.894531 -5.6875 C 5.171875 -6.660156 5.898438 -7.96875 6.570312 -8.453125 C 8.332031 -9.730469 10.25 -10.339844 12.195312 -10.339844 C 15.632812 -10.339844 20.195312 -8.300781 21.683594 -4.957031 L 23.902344 0 L 26.582031 0 L 13.015625 -30.414062 L 10.339844 -30.414062 L 10.980469 -28.984375 L 0.609375 0 Z M 6.597656 -11.527344 L 10.917969 -26.550781 C 11.070312 -27.035156 11.253906 -27.28125 11.464844 -27.28125 C 11.648438 -27.28125 11.859375 -27.066406 12.042969 -26.640625 L 19.890625 -9.0625 C 20.253906 -8.242188 20.070312 -8.089844 19.371094 -8.667969 C 17.0625 -10.554688 14.140625 -11.921875 11.28125 -11.921875 C 9.945312 -11.921875 8.636719 -11.617188 7.421875 -10.949219 C 7.117188 -10.796875 6.902344 -10.707031 6.75 -10.707031 C 6.476562 -10.707031 6.449219 -10.980469 6.597656 -11.527344 Z M 6.597656 -11.527344 "/></g></g></g><g fill="#a67f5d" fill-opacity="1"><g transform="translate(451.88175, 368.99833)"><g><path d="M 2.433594 -30.414062 L 2.433594 0 L 4.867188 0 L 4.867188 -13.078125 L 16.421875 -13.078125 C 24.179688 -13.078125 25.910156 -18.703125 25.910156 -21.746094 C 25.910156 -24.785156 24.179688 -30.414062 16.421875 -30.414062 Z M 4.867188 -15.207031 L 4.867188 -27.734375 C 4.867188 -29.378906 5.382812 -29.804688 6.476562 -29.804688 C 7.753906 -29.804688 11.34375 -29.835938 13.746094 -29.835938 C 19.828125 -29.835938 23.023438 -26.703125 23.023438 -21.746094 C 23.023438 -16.789062 19.828125 -13.6875 13.746094 -13.6875 L 6.386719 -13.6875 C 5.472656 -13.6875 4.867188 -14.292969 4.867188 -15.207031 Z M 4.867188 -15.207031 "/></g></g></g><g fill="#a67f5d" fill-opacity="1"><g transform="translate(479.433365, 368.99833)"><g><path d="M 2.433594 -30.414062 L 2.433594 0 L 4.867188 0 L 4.867188 -13.078125 L 16.421875 -13.078125 C 24.179688 -13.078125 25.910156 -18.703125 25.910156 -21.746094 C 25.910156 -24.785156 24.179688 -30.414062 16.421875 -30.414062 Z M 4.867188 -15.207031 L 4.867188 -27.734375 C 4.867188 -29.378906 5.382812 -29.804688 6.476562 -29.804688 C 7.753906 -29.804688 11.34375 -29.835938 13.746094 -29.835938 C 19.828125 -29.835938 23.023438 -26.703125 23.023438 -21.746094 C 23.023438 -16.789062 19.828125 -13.6875 13.746094 -13.6875 L 6.386719 -13.6875 C 5.472656 -13.6875 4.867188 -14.292969 4.867188 -15.207031 Z M 4.867188 -15.207031 "/></g></g></g><g fill="#a67f5d" fill-opacity="1"><g transform="translate(506.98498, 368.99833)"><g><path d="M 10.554688 -15.417969 C 11.070312 -14.6875 11.375 -13.535156 11.375 -12.621094 L 11.375 0 L 13.808594 0 L 13.808594 -12.621094 C 13.808594 -13.535156 14.113281 -14.6875 14.628906 -15.417969 L 25.089844 -30.414062 L 22.476562 -30.414062 L 14.203125 -15.9375 C 13.960938 -15.511719 13.6875 -15.328125 13.410156 -15.328125 C 13.167969 -15.328125 12.925781 -15.511719 12.683594 -15.875 L 2.675781 -30.414062 L 0.0898438 -30.414062 Z M 10.554688 -15.417969 "/></g></g></g><g fill="#a67f5d" fill-opacity="1"><g transform="translate(396.930568, 410.248327)"><g><path d="M 2.433594 0 L 23.507812 0 L 23.507812 -2.707031 C 20.40625 -1.671875 11.984375 -0.609375 6.449219 -0.609375 C 5.351562 -0.609375 4.835938 -1.035156 4.835938 -2.675781 L 4.867188 -14.539062 C 4.867188 -15.449219 5.472656 -15.875 6.386719 -15.875 C 9.761719 -15.875 16.941406 -14.933594 20.527344 -14.050781 L 20.527344 -16.605469 L 6.355469 -16.605469 C 5.445312 -16.605469 4.835938 -17.214844 4.835938 -18.125 L 4.835938 -27.734375 C 4.835938 -29.378906 5.351562 -29.804688 6.449219 -29.804688 C 11.984375 -29.804688 20.40625 -28.738281 23.507812 -27.707031 L 23.507812 -30.414062 L 2.433594 -30.414062 Z M 2.433594 0 "/></g></g></g><g fill="#a67f5d" fill-opacity="1"><g transform="translate(422.262234, 410.248327)"><g><path d="M 2.433594 0 L 4.867188 0 L 4.867188 -30.414062 L 2.433594 -30.414062 Z M 2.433594 0 "/></g></g></g><g fill="#a67f5d" fill-opacity="1"><g transform="translate(429.56068, 410.248327)"><g><path d="M 2.433594 -30.414062 L 2.433594 0 L 12.042969 0 C 20.195312 0 26.429688 -6.386719 26.429688 -15.207031 C 26.429688 -24.027344 20.195312 -30.414062 12.042969 -30.414062 Z M 4.867188 -28.34375 C 4.988281 -29.5 5.503906 -29.804688 6.449219 -29.804688 C 7.390625 -29.804688 9.304688 -29.835938 10.128906 -29.835938 C 19.738281 -29.835938 23.8125 -22.261719 23.8125 -15.207031 C 23.8125 -8.152344 19.738281 -0.425781 10.128906 -0.425781 C 9.304688 -0.425781 7.390625 -0.457031 6.449219 -0.457031 C 5.351562 -0.457031 4.835938 -0.882812 4.835938 -2.523438 C 4.835938 -6.386719 4.867188 -26.214844 4.867188 -28.34375 Z M 4.867188 -28.34375 "/></g></g></g><g fill="#a67f5d" fill-opacity="1"><g transform="translate(457.50762, 410.248327)"><g/></g></g><g fill="#a67f5d" fill-opacity="1"><g transform="translate(466.630666, 410.248327)"><g><path d="M 3.285156 0 L 4.894531 -5.6875 C 5.171875 -6.660156 5.898438 -7.96875 6.570312 -8.453125 C 8.332031 -9.730469 10.25 -10.339844 12.195312 -10.339844 C 15.632812 -10.339844 20.195312 -8.300781 21.683594 -4.957031 L 23.902344 0 L 26.582031 0 L 13.015625 -30.414062 L 10.339844 -30.414062 L 10.980469 -28.984375 L 0.609375 0 Z M 6.597656 -11.527344 L 10.917969 -26.550781 C 11.070312 -27.035156 11.253906 -27.28125 11.464844 -27.28125 C 11.648438 -27.28125 11.859375 -27.066406 12.042969 -26.640625 L 19.890625 -9.0625 C 20.253906 -8.242188 20.070312 -8.089844 19.371094 -8.667969 C 17.0625 -10.554688 14.140625 -11.921875 11.28125 -11.921875 C 9.945312 -11.921875 8.636719 -11.617188 7.421875 -10.949219 C 7.117188 -10.796875 6.902344 -10.707031 6.75 -10.707031 C 6.476562 -10.707031 6.449219 -10.980469 6.597656 -11.527344 Z M 6.597656 -11.527344 "/></g></g></g><g fill="#a67f5d" fill-opacity="1"><g transform="translate(493.300387, 410.248327)"><g><path d="M 23.507812 0 L 23.507812 -2.707031 C 20.40625 -1.671875 11.984375 -0.609375 6.449219 -0.609375 C 5.351562 -0.609375 4.835938 -1.035156 4.835938 -2.675781 L 4.835938 -30.414062 L 2.433594 -30.414062 L 2.433594 0 Z M 23.507812 0 "/></g></g></g><g fill="#a67f5d" fill-opacity="1"><g transform="translate(396.930568, 451.498324)"><g><path d="M 3.285156 0 L 4.894531 -5.6875 C 5.171875 -6.660156 5.898438 -7.96875 6.570312 -8.453125 C 8.332031 -9.730469 10.25 -10.339844 12.195312 -10.339844 C 15.632812 -10.339844 20.195312 -8.300781 21.683594 -4.957031 L 23.902344 0 L 26.582031 0 L 13.015625 -30.414062 L 10.339844 -30.414062 L 10.980469 -28.984375 L 0.609375 0 Z M 6.597656 -11.527344 L 10.917969 -26.550781 C 11.070312 -27.035156 11.253906 -27.28125 11.464844 -27.28125 C 11.648438 -27.28125 11.859375 -27.066406 12.042969 -26.640625 L 19.890625 -9.0625 C 20.253906 -8.242188 20.070312 -8.089844 19.371094 -8.667969 C 17.0625 -10.554688 14.140625 -11.921875 11.28125 -11.921875 C 9.945312 -11.921875 8.636719 -11.617188 7.421875 -10.949219 C 7.117188 -10.796875 6.902344 -10.707031 6.75 -10.707031 C 6.476562 -10.707031 6.449219 -10.980469 6.597656 -11.527344 Z M 6.597656 -11.527344 "/></g></g></g><g fill="#a67f5d" fill-opacity="1"><g transform="translate(423.600289, 451.498324)"><g><path d="M 2.433594 -30.414062 L 2.433594 0 L 12.042969 0 C 20.195312 0 26.429688 -6.386719 26.429688 -15.207031 C 26.429688 -24.027344 20.195312 -30.414062 12.042969 -30.414062 Z M 4.867188 -28.34375 C 4.988281 -29.5 5.503906 -29.804688 6.449219 -29.804688 C 7.390625 -29.804688 9.304688 -29.835938 10.128906 -29.835938 C 19.738281 -29.835938 23.8125 -22.261719 23.8125 -15.207031 C 23.8125 -8.152344 19.738281 -0.425781 10.128906 -0.425781 C 9.304688 -0.425781 7.390625 -0.457031 6.449219 -0.457031 C 5.351562 -0.457031 4.835938 -0.882812 4.835938 -2.523438 C 4.835938 -6.386719 4.867188 -26.214844 4.867188 -28.34375 Z M 4.867188 -28.34375 "/></g></g></g><g fill="#a67f5d" fill-opacity="1"><g transform="translate(451.547229, 451.498324)"><g><path d="M 4.867188 0 L 4.867188 -8.546875 C 4.867188 -14.660156 12.410156 -18.003906 17.851562 -18.003906 C 20.984375 -18.003906 23.417969 -16.910156 23.417969 -14.660156 L 23.417969 0 L 25.851562 0 L 25.851562 -30.414062 L 23.417969 -30.414062 L 23.417969 -17.121094 C 21.320312 -18.308594 18.671875 -18.917969 15.9375 -18.917969 C 11.800781 -18.917969 7.511719 -17.488281 4.867188 -14.414062 L 4.867188 -30.414062 L 2.433594 -30.414062 L 2.433594 0 Z M 4.867188 0 "/></g></g></g><g fill="#a67f5d" fill-opacity="1"><g transform="translate(479.82869, 451.498324)"><g><path d="M 3.285156 0 L 4.894531 -5.6875 C 5.171875 -6.660156 5.898438 -7.96875 6.570312 -8.453125 C 8.332031 -9.730469 10.25 -10.339844 12.195312 -10.339844 C 15.632812 -10.339844 20.195312 -8.300781 21.683594 -4.957031 L 23.902344 0 L 26.582031 0 L 13.015625 -30.414062 L 10.339844 -30.414062 L 10.980469 -28.984375 L 0.609375 0 Z M 6.597656 -11.527344 L 10.917969 -26.550781 C 11.070312 -27.035156 11.253906 -27.28125 11.464844 -27.28125 C 11.648438 -27.28125 11.859375 -27.066406 12.042969 -26.640625 L 19.890625 -9.0625 C 20.253906 -8.242188 20.070312 -8.089844 19.371094 -8.667969 C 17.0625 -10.554688 14.140625 -11.921875 11.28125 -11.921875 C 9.945312 -11.921875 8.636719 -11.617188 7.421875 -10.949219 C 7.117188 -10.796875 6.902344 -10.707031 6.75 -10.707031 C 6.476562 -10.707031 6.449219 -10.980469 6.597656 -11.527344 Z M 6.597656 -11.527344 "/></g></g></g><g clip-path="url(#cc15c0019c)"><path fill="#f18686" d="M 21.757812 308.746094 C 21.8125 308.992188 21.898438 309.238281 21.910156 309.488281 C 22.320312 318.085938 22.59375 326.90625 25.015625 335.226562 C 29.710938 351.351562 45.171875 360.328125 61.488281 360.597656 C 69.890625 360.738281 78.234375 358.835938 86.117188 355.925781 C 88.824219 354.925781 91.492188 353.808594 94.074219 352.515625 C 114.296875 342.402344 130.375 322.289062 139.257812 301.84375 C 140.875 298.128906 142.3125 294.332031 143.964844 290.632812 C 144.570312 289.28125 145.488281 288.039062 146.429688 286.882812 C 146.820312 286.40625 147.902344 285.878906 148.21875 286.078125 C 148.976562 286.566406 149.867188 287.40625 149.992188 288.214844 C 150.414062 290.890625 150.496094 293.617188 150.753906 296.316406 C 151.03125 299.238281 151.128906 302.203125 151.738281 305.054688 C 152.34375 307.882812 153.714844 310.453125 156.265625 312.148438 C 158.386719 313.558594 162.0625 313.324219 164.398438 311.730469 C 167.550781 309.574219 169.867188 306.691406 171.820312 303.46875 C 173.882812 300.058594 175.320312 296.40625 176.070312 292.492188 C 176.21875 291.71875 176.136719 290.902344 176.316406 290.140625 C 176.679688 288.617188 177.167969 287.125 177.566406 285.609375 C 177.78125 284.789062 177.90625 283.945312 178.085938 283.042969 C 179.265625 283.328125 179.65625 284.183594 179.78125 285.046875 C 180.164062 287.691406 180.460938 290.347656 180.726562 293.007812 C 180.855469 294.28125 180.839844 295.570312 180.910156 296.847656 C 180.921875 297.105469 180.953125 297.40625 181.09375 297.609375 C 182.421875 299.535156 184.898438 301.609375 188.050781 301.125 C 191.421875 300.609375 194.023438 298.910156 196.308594 296.621094 C 198.246094 294.679688 199.984375 292.535156 201.832031 290.5 C 202.492188 289.78125 202.484375 289.214844 201.75 288.53125 C 200.230469 287.121094 198.65625 285.746094 197.308594 284.183594 C 195.351562 281.914062 192.648438 281.265625 190.007812 280.449219 C 189.203125 280.203125 188.304688 280.234375 187.453125 280.121094 C 186.8125 280.039062 186.589844 279.660156 186.640625 279.015625 C 186.875 275.9375 187.09375 272.859375 187.285156 269.777344 C 187.347656 268.796875 187.375 267.808594 187.316406 266.828125 C 187.273438 266.019531 187.597656 265.535156 188.304688 265.246094 C 189.484375 264.765625 190.699219 264.359375 191.839844 263.796875 C 194.398438 262.53125 196.910156 261.171875 199.460938 259.886719 C 203.074219 258.070312 206.707031 256.285156 210.332031 254.488281 C 210.398438 254.457031 210.476562 254.441406 210.542969 254.410156 C 212.386719 253.558594 213.097656 253.695312 213.957031 255.550781 C 214.546875 256.820312 215.03125 258.269531 215.046875 259.644531 C 215.101562 265.117188 215.007812 270.59375 213.832031 275.984375 C 213.484375 277.589844 213.289062 279.226562 213.003906 280.992188 C 215.570312 280.660156 217.5625 279.472656 219.210938 277.796875 C 221.875 275.089844 223.535156 271.75 224.796875 268.207031 C 225.953125 264.964844 227.003906 261.683594 228.242188 258.472656 C 229.027344 256.429688 230.332031 254.664062 232.003906 253.222656 C 233.382812 252.035156 234.726562 252.285156 235.597656 253.890625 C 235.972656 254.574219 236.152344 255.363281 236.433594 256.101562 C 236.976562 257.527344 237.476562 259.15625 239.371094 259.042969 C 240.371094 258.980469 241.511719 258.511719 242.289062 257.863281 C 245.570312 255.125 247.417969 251.582031 247.789062 247.289062 C 247.964844 245.265625 248.222656 243.25 248.472656 241.234375 C 248.5 241.007812 248.664062 240.679688 248.839844 240.625 C 249.027344 240.566406 249.441406 240.710938 249.511719 240.871094 C 249.953125 241.882812 250.496094 242.894531 250.675781 243.960938 C 250.878906 245.171875 251.027344 246.308594 252.324219 246.792969 C 253.863281 247.367188 255.28125 247.066406 256.535156 246.027344 C 258.453125 244.429688 259.238281 242.339844 259.390625 239.882812 C 259.515625 237.945312 259.890625 236.023438 260.160156 234.015625 C 261.457031 234.105469 262.007812 235.027344 262.289062 236.03125 C 262.609375 237.175781 262.734375 238.378906 262.875 239.5625 C 263.351562 243.535156 263.023438 247.46875 261.886719 251.28125 C 261.183594 253.636719 260.25 255.953125 259.125 258.136719 C 258.554688 259.246094 257.445312 260.171875 256.390625 260.921875 C 254.546875 262.226562 252.535156 261.71875 250.683594 260.863281 C 249.714844 260.417969 249.425781 260.726562 249.113281 261.539062 C 248.414062 263.367188 247.71875 265.203125 246.929688 266.996094 C 245.859375 269.417969 244.234375 271.429688 242.0625 272.957031 C 239.738281 274.59375 235.9375 273.25 234.683594 271.144531 C 234.1875 270.316406 233.8125 269.40625 233.4375 268.511719 C 233.042969 267.574219 232.488281 267.308594 231.863281 268.074219 C 230.855469 269.308594 229.785156 270.628906 229.261719 272.101562 C 227.925781 275.855469 226.875 279.710938 225.714844 283.527344 C 225.605469 283.886719 225.570312 284.292969 225.382812 284.601562 C 224.027344 286.863281 222.671875 289.121094 221.257812 291.34375 C 219.765625 293.695312 217.457031 294.851562 214.839844 295.410156 C 212.96875 295.808594 211.085938 295.652344 209.277344 294.960938 C 208.597656 294.703125 208.304688 294.820312 207.953125 295.582031 C 205.335938 301.320312 202.226562 306.738281 197.445312 311.011719 C 195.410156 312.828125 193.359375 314.570312 190.535156 315.105469 C 185.542969 316.050781 182.019531 314.257812 179.230469 310.140625 C 178.691406 309.34375 178.304688 308.445312 177.703125 307.332031 C 177.230469 308.636719 176.789062 309.722656 176.441406 310.839844 C 175.363281 314.308594 173.554688 317.398438 171.339844 320.214844 C 169.890625 322.0625 168.199219 323.78125 166.371094 325.261719 C 161.5 329.210938 154.429688 326.972656 151.378906 322.042969 C 149.460938 318.949219 148.644531 315.566406 148.269531 312.046875 C 147.878906 308.347656 147.640625 304.628906 147.320312 300.773438 C 145.894531 301.222656 145.382812 302.363281 144.941406 303.429688 C 143.292969 307.402344 141.867188 311.476562 140.109375 315.398438 C 138.167969 319.722656 136.140625 324.03125 133.804688 328.148438 C 131.28125 332.59375 128.289062 336.765625 125.675781 341.160156 C 125.207031 341.945312 125.472656 343.253906 125.605469 344.292969 C 126.382812 350.277344 129.515625 354.972656 133.535156 359.316406 C 137 363.0625 141.285156 365.214844 145.996094 366.53125 C 150.089844 367.675781 154.324219 368.226562 158.636719 368.179688 C 186.476562 367.875 209.457031 341.671875 222.082031 319.335938 C 223.898438 316.125 225.667969 312.847656 227.3125 309.542969 C 228.515625 307.121094 229.554688 304.621094 230.675781 302.160156 C 232.578125 297.976562 234.4375 293.777344 236.410156 289.628906 C 237.390625 287.566406 238.476562 285.535156 239.730469 283.628906 C 240.183594 282.941406 241.253906 282.324219 242.058594 282.304688 C 242.71875 282.289062 243.617188 283.074219 244.039062 283.738281 C 245.351562 285.820312 245.84375 288.125 245.769531 290.636719 C 245.703125 292.960938 245.8125 295.335938 246.238281 297.617188 C 246.949219 301.457031 249.398438 303.992188 253.296875 304.566406 C 256.6875 305.0625 259.4375 303.582031 261.613281 301.171875 C 264.558594 297.910156 266.289062 293.972656 267.570312 289.789062 C 268.246094 287.578125 269.207031 285.449219 270.117188 283.320312 C 270.359375 282.75 270.855469 282.269531 271.320312 281.835938 C 271.476562 281.6875 271.949219 281.699219 272.171875 281.824219 C 273.582031 282.621094 273.5 284.097656 273.625 285.40625 C 273.746094 286.683594 273.648438 287.976562 273.664062 289.265625 C 273.707031 292.257812 274.953125 294.058594 277.796875 295.058594 C 281.585938 296.394531 285.230469 295.890625 288.820312 294.195312 C 293.40625 292.03125 296.910156 288.621094 299.714844 284.539062 C 302.042969 281.152344 304 277.511719 306.121094 273.984375 C 306.050781 273.921875 305.980469 273.859375 305.910156 273.796875 C 305.644531 274 305.347656 274.175781 305.113281 274.414062 C 302.347656 277.257812 298.875 278.878906 295.148438 279.945312 C 291.300781 281.042969 287.410156 281.070312 283.441406 280.257812 C 280.265625 279.605469 277.992188 277.863281 276.152344 275.40625 C 275.285156 274.25 275.023438 272.816406 275.347656 271.414062 C 275.683594 269.964844 276.066406 268.476562 276.738281 267.164062 C 278.289062 264.121094 279.636719 260.875 282.226562 258.535156 C 285.105469 255.933594 288.433594 254.132812 292.484375 254.214844 C 293.339844 254.230469 294.230469 254.335938 295.039062 254.605469 C 297.5 255.421875 298.839844 258.402344 297.816406 260.863281 C 296.808594 263.296875 295.683594 265.679688 294.5625 268.058594 C 294.394531 268.417969 293.957031 268.652344 293.644531 268.945312 C 293.421875 268.507812 293.105469 268.089844 293 267.625 C 292.867188 267.011719 292.992188 266.335938 292.84375 265.726562 C 292.371094 263.757812 290.722656 263.335938 289.054688 263.070312 C 286.59375 262.675781 284.28125 263.210938 282.101562 264.40625 C 281.140625 264.9375 280.90625 265.433594 281.453125 266.390625 C 282.875 268.875 285.085938 270.449219 287.777344 271.207031 C 294.050781 272.96875 300.152344 272.425781 306.164062 269.824219 C 308.703125 268.722656 309.371094 266.515625 310.199219 264.378906 C 312.734375 257.828125 315.941406 251.644531 320.3125 246.148438 C 321.910156 244.132812 324.003906 242.511719 325.886719 240.726562 C 326.15625 240.472656 326.5 240.265625 326.847656 240.132812 C 329.695312 239.042969 331.039062 239.558594 332.070312 242.03125 C 332.621094 243.347656 332.777344 244.855469 332.957031 246.292969 C 333.105469 247.488281 333 248.710938 333.058594 249.921875 C 333.136719 251.515625 332.644531 252.917969 331.609375 254.089844 C 330.878906 254.914062 330.035156 255.320312 328.808594 254.796875 C 326.960938 254.011719 325.5625 255.226562 324.230469 256.253906 C 321.769531 258.15625 320.132812 260.761719 318.441406 263.316406 C 315.546875 267.6875 313.734375 272.5625 311.867188 277.410156 C 310.734375 280.355469 309.703125 283.351562 308.378906 286.210938 C 307.308594 288.527344 305.9375 290.714844 304.570312 292.878906 C 302.816406 295.65625 301.097656 298.476562 299.078125 301.050781 C 295.816406 305.214844 291.84375 308.523438 286.566406 309.90625 C 280.339844 311.535156 273.765625 308.882812 270.742188 303.519531 C 270.472656 303.042969 270.308594 302.511719 269.984375 301.742188 C 269.527344 302.417969 269.058594 302.941406 268.785156 303.554688 C 267.804688 305.71875 267 307.96875 265.9375 310.089844 C 264.21875 313.503906 261.992188 316.542969 258.414062 318.246094 C 255.304688 319.726562 252.128906 319.527344 249.167969 317.9375 C 244.789062 315.585938 242.480469 311.765625 242.101562 306.824219 C 241.933594 304.621094 241.964844 302.402344 241.808594 300.195312 C 241.734375 299.15625 241.421875 298.132812 241.21875 297.101562 C 241.066406 297.0625 240.910156 297.019531 240.753906 296.976562 C 240.238281 297.53125 239.550781 297.996094 239.230469 298.644531 C 237.5625 302.023438 235.945312 305.429688 234.386719 308.859375 C 229.109375 320.457031 224.363281 332.410156 217.367188 343.117188 C 210.6875 353.335938 202.269531 362.425781 192.554688 369.832031 C 177.738281 381.125 156.871094 387.328125 139.855469 376.589844 C 137.589844 375.160156 135.582031 373.21875 133.757812 371.238281 C 131.695312 369.003906 129.832031 366.554688 128.144531 364.019531 C 126.050781 360.878906 125.078125 357.199219 123.695312 353.714844 C 122.582031 350.917969 122.410156 348.074219 122.078125 345.117188 C 122.171875 345.960938 118.382812 349.105469 117.730469 349.773438 C 106.265625 361.511719 93.09375 369.628906 77.023438 373.273438 C 67.894531 375.34375 58.515625 375.226562 49.609375 372.089844 C 41.683594 369.304688 34.53125 364.226562 29.539062 357.472656 C 20.9375 345.847656 18.335938 329.203125 20.160156 315.113281 C 20.441406 312.949219 20.898438 310.8125 21.277344 308.664062 C 21.4375 308.691406 21.597656 308.71875 21.757812 308.746094 Z M 178.929688 250.269531 C 178.414062 251.988281 177.976562 253.734375 177.367188 255.417969 C 176.390625 258.117188 174.515625 260.285156 172.925781 262.621094 C 171.160156 265.214844 168.902344 267.265625 166.363281 269.070312 C 164.90625 270.109375 163.566406 271.320312 162.175781 272.453125 C 159.90625 274.300781 157.089844 275.023438 154.484375 276.164062 C 150.8125 277.773438 147 279.089844 143.402344 280.847656 C 140.964844 282.039062 138.722656 283.679688 136.949219 285.832031 C 136.644531 286.203125 136.308594 286.5625 135.941406 286.875 C 133.976562 288.542969 133.085938 290.808594 132.359375 293.175781 C 132.207031 293.675781 132.070312 294.214844 131.765625 294.617188 C 131.5625 294.886719 131.082031 294.953125 130.726562 295.105469 C 130.585938 294.757812 130.238281 294.332031 130.335938 294.074219 C 131.105469 292.015625 131.109375 289.71875 132.421875 287.824219 C 133.832031 285.789062 135.066406 283.628906 136.496094 281.605469 C 139.347656 277.554688 143.042969 274.398438 147.367188 272.042969 C 150.03125 270.59375 152.863281 269.449219 155.636719 268.203125 C 160.144531 266.171875 164.570312 263.988281 168.601562 261.09375 C 169.058594 260.765625 169.5625 260.390625 169.808594 259.917969 C 170.0625 259.425781 170.242188 258.695312 170.054688 258.234375 C 169.886719 257.824219 169.113281 257.332031 168.703125 257.402344 C 167.160156 257.671875 165.640625 258.117188 164.136719 258.578125 C 162.128906 259.191406 160.144531 259.894531 158.148438 260.539062 C 155.613281 261.359375 153.101562 262.25 150.53125 262.933594 C 149.140625 263.304688 147.65625 263.320312 146.210938 263.492188 C 144.714844 263.667969 143.21875 263.851562 141.722656 264 C 141.273438 264.042969 140.804688 264.03125 140.367188 263.949219 C 138.691406 263.628906 138.199219 262.628906 138.964844 261.136719 C 140.671875 257.800781 142.40625 254.480469 144.089844 251.136719 C 144.507812 250.304688 144.980469 250.023438 145.988281 250.0625 C 147.578125 250.121094 149.195312 249.886719 150.78125 249.648438 C 153.113281 249.296875 155.464844 248.972656 157.742188 248.386719 C 160.933594 247.570312 164.074219 246.53125 167.226562 245.566406 C 169.09375 245 170.933594 244.324219 172.820312 243.832031 C 174.425781 243.410156 175.835938 244 176.890625 245.222656 C 178.105469 246.632812 178.832031 248.269531 178.929688 250.269531 Z M 195.082031 238.996094 C 195.597656 237.269531 196.234375 235.570312 196.59375 233.808594 C 196.96875 231.976562 197.21875 230.089844 197.265625 228.21875 C 197.320312 226 197.046875 223.773438 197.015625 221.546875 C 196.972656 218.683594 197.003906 215.816406 197.058594 212.949219 C 197.097656 211.082031 197.074219 209.1875 197.375 207.355469 C 197.710938 205.339844 197.882812 203.222656 199.195312 201.488281 C 199.308594 201.335938 199.457031 201.199219 199.523438 201.03125 C 200.425781 198.703125 202.097656 197.054688 204.292969 196.027344 C 205.402344 195.507812 206.726562 195.144531 207.933594 195.191406 C 211.664062 195.332031 214.691406 196.707031 215.917969 200.652344 C 216.445312 202.347656 216.269531 204.28125 216.289062 206.105469 C 216.300781 207.1875 215.894531 208.292969 216.003906 209.355469 C 216.179688 211.027344 215.210938 212.289062 214.769531 213.734375 C 214.695312 213.980469 214.535156 214.203125 214.410156 214.433594 C 214.273438 214.371094 214.132812 214.304688 213.992188 214.238281 C 213.953125 213.835938 213.859375 213.425781 213.882812 213.023438 C 214.046875 210.441406 213.335938 208.148438 211.125 206.714844 C 208.871094 205.25 206.316406 204.898438 203.847656 206.195312 C 202.929688 206.679688 202.125 207.578125 201.550781 208.46875 C 199.976562 210.90625 199.414062 213.703125 199.402344 216.546875 C 199.382812 220.621094 199.632812 224.691406 199.664062 228.761719 C 199.683594 231.046875 199.484375 233.332031 199.402344 235.613281 C 199.28125 239 198.628906 242.308594 197.5625 245.492188 C 196.839844 247.644531 195.640625 249.636719 194.609375 251.675781 C 194.492188 251.90625 193.902344 252.167969 193.824219 252.097656 C 193.492188 251.796875 193.09375 251.394531 193.046875 250.988281 C 192.824219 249.160156 192.769531 247.308594 192.546875 245.480469 C 191.972656 240.722656 190.230469 236.410156 187.429688 232.523438 C 187.234375 232.25 186.992188 232.011719 186.714844 231.6875 C 185.96875 232.34375 185.386719 231.925781 184.621094 231.609375 C 182.894531 230.894531 181.035156 230.503906 179.261719 229.882812 C 178.21875 229.515625 177.164062 229.078125 176.253906 228.464844 C 174.800781 227.496094 174.917969 225.8125 174.875 224.351562 C 174.808594 222.167969 174.804688 219.949219 175.121094 217.792969 C 175.472656 215.382812 177.574219 213.652344 180.105469 214.941406 C 183.210938 216.523438 185.730469 218.859375 187.855469 221.613281 C 190.585938 225.144531 192.667969 229.015625 193.785156 233.347656 C 194.253906 235.152344 194.433594 237.03125 194.742188 238.878906 C 194.855469 238.917969 194.96875 238.957031 195.082031 238.996094 Z M 157.847656 345.472656 C 157.023438 348.273438 156.328125 350.886719 155.460938 353.441406 C 155.15625 354.335938 154.5 355.15625 153.859375 355.878906 C 152.933594 356.925781 151.988281 356.964844 150.742188 356.320312 C 147.164062 354.460938 143.570312 352.636719 139.984375 350.789062 C 139.453125 350.515625 138.917969 350.230469 138.425781 349.890625 C 137.136719 349.007812 136.929688 348.417969 137.542969 346.949219 C 138.90625 343.6875 140.316406 340.445312 141.714844 337.195312 C 141.996094 336.546875 142.300781 335.910156 142.578125 335.300781 C 147.351562 337.890625 152.039062 340.4375 156.84375 343.042969 C 157.289062 342.160156 157.722656 341.300781 158.152344 340.4375 C 159.496094 337.742188 160.855469 335.054688 162.160156 332.34375 C 162.550781 331.527344 163.207031 331.574219 163.757812 331.835938 C 166.808594 333.296875 169.828125 334.828125 172.859375 336.339844 C 173.667969 336.742188 174.464844 337.164062 175.277344 337.554688 C 176.128906 337.964844 176.742188 339.222656 176.535156 340.175781 C 175.757812 343.746094 174.140625 346.96875 172.378906 350.121094 C 171.519531 351.660156 170.761719 351.683594 169.222656 350.863281 C 165.964844 349.128906 162.652344 347.492188 159.34375 345.855469 C 158.859375 345.617188 158.273438 345.578125 157.847656 345.472656 Z M 284.882812 331.960938 C 284.679688 333.441406 285.449219 333.972656 286.167969 334.40625 C 287.78125 335.375 289.429688 336.28125 291.109375 337.128906 C 293.261719 338.210938 293.679688 340.871094 293.300781 342.828125 C 292.636719 346.214844 290.863281 349.144531 289.039062 351.980469 C 287.476562 354.410156 288.324219 355.691406 290.367188 356.703125 C 293.53125 358.273438 296.914062 358.476562 300.402344 357.929688 C 304.949219 357.21875 308.949219 355.160156 313.074219 353.304688 C 317.03125 351.523438 320.25 348.902344 323.082031 345.710938 C 323.234375 345.539062 323.394531 345.378906 323.5625 345.230469 C 323.703125 345.105469 323.863281 345 324.316406 344.96875 C 324.222656 345.324219 324.230469 345.761719 324.019531 346.019531 C 321.355469 349.195312 318.835938 352.515625 315.914062 355.441406 C 313.78125 357.574219 311.148438 359.226562 308.671875 361.003906 C 307.179688 362.074219 305.550781 362.953125 303.988281 363.933594 C 301.511719 365.484375 298.878906 366.695312 296 367.222656 C 292.449219 367.878906 289.039062 367.3125 285.769531 365.785156 C 283.839844 364.886719 282.636719 361.75 283.164062 359.941406 C 284.289062 356.097656 285.855469 352.472656 287.851562 349.015625 C 288.425781 348.023438 288.265625 347.257812 287.28125 346.640625 C 286.355469 346.058594 285.445312 345.421875 284.445312 345.003906 C 279.691406 343.011719 279.046875 340.203125 280.1875 335.699219 C 280.878906 332.957031 281.917969 330.25 283.199219 327.730469 C 284.457031 325.253906 286.4375 323.265625 289.292969 322.527344 C 290.113281 322.3125 291.023438 322.253906 291.859375 322.359375 C 292.636719 322.460938 293.253906 322.859375 292.820312 323.933594 C 291.871094 326.304688 291.039062 328.722656 290.132812 331.109375 C 289.890625 331.75 289.496094 331.851562 288.722656 331.757812 C 287.464844 331.609375 286.15625 331.871094 284.882812 331.960938 Z M 249.449219 333.898438 C 251.929688 330.152344 254.304688 326.554688 256.578125 323.117188 C 260.90625 325.789062 265.0625 328.351562 269.214844 330.914062 C 270.121094 331.476562 270.640625 332.828125 270.070312 333.78125 C 268.257812 336.816406 266.425781 339.851562 264.421875 342.765625 C 263.425781 344.207031 262.863281 344.109375 261.425781 343.140625 C 258.183594 340.949219 254.925781 338.78125 251.671875 336.609375 C 251.433594 336.449219 251.152344 336.347656 251.136719 336.335938 C 249.59375 339.199219 248.128906 342.015625 246.558594 344.773438 C 246.183594 345.4375 245.570312 346.078125 244.90625 346.425781 C 244.320312 346.730469 243.414062 346.867188 242.820312 346.636719 C 239.621094 345.410156 236.675781 343.679688 233.839844 341.753906 C 233.222656 341.335938 232.558594 340.976562 231.871094 340.679688 C 230.253906 339.972656 229.734375 338.496094 230.652344 336.972656 C 232.5 333.914062 234.355469 330.855469 236.234375 327.820312 C 237.175781 326.300781 237.191406 326.339844 238.613281 327.601562 C 241.789062 330.421875 245.652344 332.042969 249.449219 333.898438 Z M 215.808594 250.054688 C 216.011719 249 216.144531 247.925781 216.425781 246.890625 C 217.6875 242.265625 219.289062 237.789062 222.578125 234.140625 C 224.628906 231.867188 226.941406 229.898438 229.507812 228.199219 C 234.785156 224.703125 240.726562 222.535156 246.316406 219.660156 C 250.292969 217.617188 254.28125 215.601562 258.203125 213.460938 C 260.777344 212.058594 263.355469 210.617188 265.722656 208.902344 C 267.8125 207.390625 269.609375 205.480469 271.539062 203.75 C 272.070312 203.273438 272.601562 202.796875 273.160156 202.355469 C 273.3125 202.238281 273.667969 202.152344 273.757812 202.238281 C 273.917969 202.386719 273.992188 202.671875 274.011719 202.90625 C 274.027344 203.121094 273.949219 203.355469 273.875 203.566406 C 273.359375 205.019531 272.75 206.445312 272.328125 207.921875 C 271.574219 210.546875 269.40625 211.871094 267.480469 213.429688 C 266.808594 213.976562 266.082031 214.46875 265.480469 215.085938 C 263.03125 217.59375 260.164062 219.53125 257.113281 221.207031 C 253.089844 223.417969 249.082031 225.660156 244.996094 227.753906 C 241.050781 229.78125 237.007812 231.613281 233.027344 233.570312 C 229.371094 235.371094 225.769531 237.308594 222.8125 240.140625 C 220.296875 242.554688 218.402344 245.46875 217.097656 248.734375 C 216.886719 249.257812 216.539062 249.726562 216.253906 250.222656 C 216.105469 250.164062 215.957031 250.109375 215.808594 250.054688 Z M 299.136719 323.855469 C 299.210938 322.953125 299.175781 322.027344 299.382812 321.160156 C 300.652344 315.851562 301.660156 310.390625 304.84375 305.824219 C 306.8125 302.996094 309.3125 300.53125 311.632812 297.957031 C 312.816406 296.644531 314.074219 295.382812 315.40625 294.222656 C 316.5625 293.214844 317.851562 292.363281 319.113281 291.480469 C 322.386719 289.195312 325.734375 287.011719 328.9375 284.628906 C 331.433594 282.773438 333.800781 280.734375 336.140625 278.675781 C 337.507812 277.472656 338.21875 275.84375 338.730469 274.078125 C 339.050781 272.964844 339.765625 271.964844 340.289062 270.9375 C 341.332031 271.1875 341.601562 271.671875 341.289062 272.480469 C 339.9375 276.011719 338.644531 279.570312 337.214844 283.070312 C 336.253906 285.410156 334.445312 287.136719 332.617188 288.824219 C 331.570312 289.789062 330.660156 290.914062 329.550781 291.792969 C 327.289062 293.589844 324.921875 295.253906 322.621094 297.003906 C 318.597656 300.0625 314.535156 303.070312 310.605469 306.242188 C 308.796875 307.703125 307.273438 309.507812 305.609375 311.148438 C 304.257812 312.476562 303.441406 314.117188 302.808594 315.871094 C 301.96875 318.203125 301.117188 320.53125 300.242188 322.851562 C 300.09375 323.25 299.820312 323.597656 299.601562 323.96875 C 299.445312 323.929688 299.289062 323.890625 299.136719 323.855469 Z M 215.996094 308.332031 C 215.921875 308.929688 215.933594 309.335938 215.816406 309.707031 C 215.054688 312.136719 214.339844 314.582031 213.453125 316.964844 C 213.066406 318.003906 212.375 318.949219 211.710938 319.855469 C 209.6875 322.628906 207.628906 325.351562 204.757812 327.378906 C 201.558594 329.640625 198.496094 332.089844 195.335938 334.414062 C 194.316406 335.164062 193.210938 335.808594 192.105469 336.4375 C 187.386719 339.105469 184.546875 343.199219 182.996094 348.296875 C 182.800781 348.933594 182.464844 349.527344 182.167969 350.128906 C 182.058594 350.355469 181.882812 350.550781 181.585938 350.980469 C 181.433594 350.566406 181.222656 350.296875 181.28125 350.109375 C 182.625 345.707031 183.785156 341.230469 185.449219 336.953125 C 186.480469 334.292969 188.59375 332.140625 190.832031 330.347656 C 193.910156 327.878906 197.175781 325.644531 200.339844 323.285156 C 203.683594 320.792969 207.027344 318.296875 210.335938 315.761719 C 212.0625 314.4375 213.09375 312.601562 213.921875 310.625 C 214.304688 309.714844 214.792969 308.84375 215.996094 308.332031 Z M 253.59375 389.679688 C 253.816406 389.039062 254.007812 388.382812 254.269531 387.761719 C 255.261719 385.371094 256.285156 382.992188 257.285156 380.605469 C 258.480469 377.753906 258.277344 374.828125 257.941406 371.835938 C 257.378906 366.8125 254.617188 362.941406 251.542969 359.285156 C 250.050781 357.511719 248.914062 355.9375 249.796875 353.515625 C 250.378906 351.917969 250.730469 350.234375 251.21875 348.597656 C 251.320312 348.261719 251.582031 347.972656 251.832031 347.546875 C 253.867188 349.140625 255.566406 350.851562 257.113281 352.765625 C 259.675781 355.9375 261.046875 359.558594 261.601562 363.527344 C 261.792969 364.898438 261.851562 366.300781 261.839844 367.6875 C 261.785156 372.667969 260.957031 377.480469 258.640625 381.960938 C 257.640625 383.894531 256.734375 385.878906 255.683594 387.785156 C 255.253906 388.570312 254.5625 389.207031 253.988281 389.914062 C 253.859375 389.832031 253.726562 389.757812 253.59375 389.679688 Z M 253.59375 389.679688 " fill-opacity="1" fill-rule="nonzero"/></g></svg>